<svg aria-hidden="true" style="position: absolute; width: 0; height: 0; overflow: hidden;" version="1.1" xmlns="http://www.w3.org/2000/svg" xmlns:xlink="http://www.w3.org/1999/xlink">
<defs>
<symbol id="icon-phone" viewBox="0 0 32 32">
<path d="M22 20c-2 2-2 4-4 4s-4-2-6-4-4-4-4-6 2-2 4-4-4-8-6-8-6 6-6 6c0 4 4.109 12.109 8 16s12 8 16 8c0 0 6-4 6-6s-6-8-8-6z"></path>
</symbol>
<symbol id="icon-map" viewBox="0 0 32 32">
<path d="M0 6l10-4v24l-10 4z"></path>
<path d="M12 1l10 6v23l-10-5z"></path>
<path d="M24 7l8-6v24l-8 6z"></path>
</symbol>
<symbol id="icon-email" viewBox="0 0 24 24">
<path d="M20.016 8.016v-2.016l-8.016 5.016-8.016-5.016v2.016l8.016 4.969zM20.016 3.984q0.797 0 1.383 0.609t0.586 1.406v12q0 0.797-0.586 1.406t-1.383 0.609h-16.031q-0.797 0-1.383-0.609t-0.586-1.406v-12q0-0.797 0.586-1.406t1.383-0.609h16.031z"></path>
</symbol>
<symbol id="icon-contact_phone" viewBox="0 0 24 24">
<path d="M17.859 14.016q-0.375-0.984-0.375-2.016t0.375-2.016h1.641l1.5-1.969-1.969-2.016q-0.844 0.656-1.664 1.828t-1.102 2.156-0.281 2.016 0.281 2.016 1.102 2.156 1.664 1.828l1.969-2.016-1.5-1.969h-1.641zM14.016 18v-0.984q0-1.359-2.063-2.227t-3.938-0.867-3.938 0.867-2.063 2.227v0.984h12zM8.016 6q-1.219 0-2.109 0.891t-0.891 2.109 0.891 2.109 2.109 0.891 2.109-0.891 0.891-2.109-0.891-2.109-2.109-0.891zM21.984 3q0.797 0 1.406 0.609t0.609 1.406v13.969q0 0.797-0.609 1.406t-1.406 0.609h-19.969q-0.797 0-1.406-0.609t-0.609-1.406v-13.969q0-0.797 0.609-1.406t1.406-0.609h19.969z"></path>
</symbol>
<symbol id="icon-file_copy" viewBox="0 0 24 24">
<path d="M14.016 12h5.484l-5.484-5.484v5.484zM15 5.016l6 6v9.984q0 0.797-0.609 1.406t-1.406 0.609h-11.016q-0.797 0-1.383-0.609t-0.586-1.406v-14.016q0-0.797 0.609-1.383t1.406-0.586h6.984zM15.984 0.984v2.016h-12v14.016h-1.969v-14.016q0-0.797 0.586-1.406t1.383-0.609h12z"></path>
</symbol>
<symbol id="icon-collections" viewBox="0 0 24 24">
<path d="M2.016 6h1.969v14.016h14.016v1.969h-14.016q-0.797 0-1.383-0.586t-0.586-1.383v-14.016zM11.016 12l-3 3.984h12l-4.031-4.969-2.953 3.703zM21.984 15.984q0 0.797-0.586 1.406t-1.383 0.609h-12q-0.797 0-1.406-0.609t-0.609-1.406v-12q0-0.797 0.609-1.383t1.406-0.586h12q0.797 0 1.383 0.586t0.586 1.383v12z"></path>
</symbol>
<symbol id="icon-home" viewBox="0 0 24 24">
<path d="M9.984 20.016h-4.969v-8.016h-3l9.984-9 9.984 9h-3v8.016h-4.969v-6h-4.031v6z"></path>
</symbol>
<symbol id="icon-info" viewBox="0 0 24 24">
<path d="M12.984 9v-2.016h-1.969v2.016h1.969zM12.984 17.016v-6h-1.969v6h1.969zM12 2.016q4.125 0 7.055 2.93t2.93 7.055-2.93 7.055-7.055 2.93-7.055-2.93-2.93-7.055 2.93-7.055 7.055-2.93z"></path>
</symbol>
<symbol id="icon-date_range" viewBox="0 0 24 24">
<path d="M18.984 20.016v-11.016h-13.969v11.016h13.969zM18.984 3.984q0.797 0 1.406 0.609t0.609 1.406v14.016q0 0.797-0.609 1.383t-1.406 0.586h-13.969q-0.844 0-1.43-0.563t-0.586-1.406v-14.016q0-0.797 0.586-1.406t1.43-0.609h0.984v-1.969h2.016v1.969h7.969v-1.969h2.016v1.969h0.984zM17.016 11.016v1.969h-2.016v-1.969h2.016zM12.984 11.016v1.969h-1.969v-1.969h1.969zM9 11.016v1.969h-2.016v-1.969h2.016z"></path>
</symbol>
<symbol id="icon-groups" viewBox="0 0 24 24">
<path d="M12 12.75q1.219 0 2.297 0.258t1.922 0.633 1.313 1.125 0.469 1.594v1.641h-12v-1.594q0-0.891 0.469-1.641t1.313-1.125 1.922-0.633 2.297-0.258zM3.984 12.984q0.844 0 1.43-0.586t0.586-1.383q0-0.844-0.586-1.43t-1.43-0.586q-0.797 0-1.383 0.586t-0.586 1.43q0 0.797 0.586 1.383t1.383 0.586zM5.109 14.109q-0.234-0.047-0.516-0.070t-0.609-0.023q-0.75 0-1.43 0.141t-1.336 0.422q-0.563 0.234-0.891 0.75t-0.328 1.125v1.547h4.5v-1.594q0-1.219 0.609-2.297zM20.016 12.984q0.797 0 1.383-0.586t0.586-1.383q0-0.844-0.586-1.43t-1.383-0.586q-0.844 0-1.43 0.586t-0.586 1.43q0 0.797 0.586 1.383t1.43 0.586zM24 16.453q0-0.609-0.328-1.125t-0.891-0.75q-0.656-0.281-1.336-0.422t-1.43-0.141q-0.328 0-0.609 0.023t-0.516 0.070q0.609 1.078 0.609 2.297v1.594h4.5v-1.547zM12 6q0.844 0 1.523 0.398t1.078 1.078 0.398 1.523-0.398 1.523-1.078 1.078-1.523 0.398-1.523-0.398-1.078-1.078-0.398-1.523 0.398-1.523 1.078-1.078 1.523-0.398z"></path>
</symbol>
<symbol id="icon-youtube-play" viewBox="0 0 28 28">
<path d="M11.109 17.625l7.562-3.906-7.562-3.953v7.859zM14 4.156c5.891 0 9.797 0.281 9.797 0.281 0.547 0.063 1.75 0.063 2.812 1.188 0 0 0.859 0.844 1.109 2.781 0.297 2.266 0.281 4.531 0.281 4.531v2.125s0.016 2.266-0.281 4.531c-0.25 1.922-1.109 2.781-1.109 2.781-1.062 1.109-2.266 1.109-2.812 1.172 0 0-3.906 0.297-9.797 0.297v0c-7.281-0.063-9.516-0.281-9.516-0.281-0.625-0.109-2.031-0.078-3.094-1.188 0 0-0.859-0.859-1.109-2.781-0.297-2.266-0.281-4.531-0.281-4.531v-2.125s-0.016-2.266 0.281-4.531c0.25-1.937 1.109-2.781 1.109-2.781 1.062-1.125 2.266-1.125 2.812-1.188 0 0 3.906-0.281 9.797-0.281v0z"></path>
</symbol>
<symbol id="icon-fax" viewBox="0 0 28 28">
<path d="M4.5 6c1.375 0 2.5 1.125 2.5 2.5v17c0 1.375-1.125 2.5-2.5 2.5h-2c-1.375 0-2.5-1.125-2.5-2.5v-17c0-1.375 1.125-2.5 2.5-2.5h2zM26 8.547c1.188 0.688 2 1.984 2 3.453v12c0 2.203-1.797 4-4 4h-13.5c-1.375 0-2.5-1.125-2.5-2.5v-24c0-0.828 0.672-1.5 1.5-1.5h10.5c0.828 0 1.984 0.484 2.562 1.062l2.375 2.375c0.578 0.578 1.062 1.734 1.062 2.562v2.547zM14.5 24v-2c0-0.281-0.219-0.5-0.5-0.5h-2c-0.281 0-0.5 0.219-0.5 0.5v2c0 0.281 0.219 0.5 0.5 0.5h2c0.281 0 0.5-0.219 0.5-0.5zM14.5 20v-2c0-0.281-0.219-0.5-0.5-0.5h-2c-0.281 0-0.5 0.219-0.5 0.5v2c0 0.281 0.219 0.5 0.5 0.5h2c0.281 0 0.5-0.219 0.5-0.5zM14.5 16v-2c0-0.281-0.219-0.5-0.5-0.5h-2c-0.281 0-0.5 0.219-0.5 0.5v2c0 0.281 0.219 0.5 0.5 0.5h2c0.281 0 0.5-0.219 0.5-0.5zM18.5 24v-2c0-0.281-0.219-0.5-0.5-0.5h-2c-0.281 0-0.5 0.219-0.5 0.5v2c0 0.281 0.219 0.5 0.5 0.5h2c0.281 0 0.5-0.219 0.5-0.5zM18.5 20v-2c0-0.281-0.219-0.5-0.5-0.5h-2c-0.281 0-0.5 0.219-0.5 0.5v2c0 0.281 0.219 0.5 0.5 0.5h2c0.281 0 0.5-0.219 0.5-0.5zM18.5 16v-2c0-0.281-0.219-0.5-0.5-0.5h-2c-0.281 0-0.5 0.219-0.5 0.5v2c0 0.281 0.219 0.5 0.5 0.5h2c0.281 0 0.5-0.219 0.5-0.5zM22.5 24v-2c0-0.281-0.219-0.5-0.5-0.5h-2c-0.281 0-0.5 0.219-0.5 0.5v2c0 0.281 0.219 0.5 0.5 0.5h2c0.281 0 0.5-0.219 0.5-0.5zM22.5 20v-2c0-0.281-0.219-0.5-0.5-0.5h-2c-0.281 0-0.5 0.219-0.5 0.5v2c0 0.281 0.219 0.5 0.5 0.5h2c0.281 0 0.5-0.219 0.5-0.5zM22.5 16v-2c0-0.281-0.219-0.5-0.5-0.5h-2c-0.281 0-0.5 0.219-0.5 0.5v2c0 0.281 0.219 0.5 0.5 0.5h2c0.281 0 0.5-0.219 0.5-0.5zM24 10v-4h-2.5c-0.828 0-1.5-0.672-1.5-1.5v-2.5h-10v8h14z"></path>
</symbol>
<symbol id="icon-facebook-official" viewBox="0 0 24 28">
<path d="M22.672 2c0.734 0 1.328 0.594 1.328 1.328v21.344c0 0.734-0.594 1.328-1.328 1.328h-6.109v-9.297h3.109l0.469-3.625h-3.578v-2.312c0-1.047 0.281-1.75 1.797-1.75l1.906-0.016v-3.234c-0.328-0.047-1.469-0.141-2.781-0.141-2.766 0-4.672 1.687-4.672 4.781v2.672h-3.125v3.625h3.125v9.297h-11.484c-0.734 0-1.328-0.594-1.328-1.328v-21.344c0-0.734 0.594-1.328 1.328-1.328h21.344z"></path>
</symbol>
</defs>
</svg>
